<svg width="20" height="25" viewBox="0 0 20 25" fill="none" xmlns="http://www.w3.org/2000/svg">
<path d="M10 24.9803C9.04167 24.9803 7.83854 24.8344 6.39062 24.5428C4.94271 24.2511 3.89583 23.949 3.25 23.6365C3.02083 23.5323 2.83854 23.3761 2.70312 23.1678C2.56771 22.9594 2.5 22.7303 2.5 22.4803V21.2303H1.25C0.895833 21.2303 0.598958 21.1105 0.359375 20.8709C0.119792 20.6313 0 20.3344 0 19.9803V18.1053C0 17.7511 0.119792 17.4542 0.359375 17.2146C0.598958 16.9751 0.895833 16.8553 1.25 16.8553H2.5V14.3553H1.25C0.895833 14.3553 0.598958 14.2355 0.359375 13.9959C0.119792 13.7563 0 13.4594 0 13.1053V11.2303C0 10.8761 0.119792 10.5792 0.359375 10.3396C0.598958 10.1001 0.895833 9.98026 1.25 9.98026H2.5V7.48026H1.25C0.895833 7.48026 0.598958 7.36047 0.359375 7.12089C0.119792 6.8813 0 6.58443 0 6.23026V4.35526C0 4.0011 0.119792 3.70422 0.359375 3.46464C0.598958 3.22505 0.895833 3.10526 1.25 3.10526H2.5V1.23026C2.5 0.77193 2.6875 0.42818 3.0625 0.199013C3.4375 -0.0301535 3.83333 -0.0614035 4.25 0.105263C4.27083 0.105263 4.84375 0.292763 5.96875 0.667763C7.09375 1.04276 8.4375 1.23026 10 1.23026C11.5625 1.23026 12.9062 1.04276 14.0312 0.667763C15.1562 0.292763 15.7292 0.105263 15.75 0.105263C16.1667 -0.0614035 16.5625 -0.0249452 16.9375 0.214638C17.3125 0.454221 17.5 0.792763 17.5 1.23026V3.10526H18.75C19.1042 3.10526 19.401 3.22505 19.6406 3.46464C19.8802 3.70422 20 4.0011 20 4.35526V6.23026C20 6.58443 19.8802 6.8813 19.6406 7.12089C19.401 7.36047 19.1042 7.48026 18.75 7.48026H17.5V9.98026H18.75C19.1042 9.98026 19.401 10.1001 19.6406 10.3396C19.8802 10.5792 20 10.8761 20 11.2303V13.1053C20 13.4594 19.8802 13.7563 19.6406 13.9959C19.401 14.2355 19.1042 14.3553 18.75 14.3553H17.5V16.8553H18.75C19.1042 16.8553 19.401 16.9751 19.6406 17.2146C19.8802 17.4542 20 17.7511 20 18.1053V19.9803C20 20.3344 19.8802 20.6313 19.6406 20.8709C19.401 21.1105 19.1042 21.2303 18.75 21.2303H17.5V22.4803C17.5 22.7303 17.4323 22.9594 17.2969 23.1678C17.1615 23.3761 16.9792 23.5323 16.75 23.6365C16.1042 23.949 15.0573 24.2511 13.6094 24.5428C12.1615 24.8344 10.9583 24.9803 10 24.9803ZM10 8.29276C10.7917 8.29276 11.6302 8.21985 12.5156 8.07401C13.401 7.92818 14.2292 7.71985 15 7.44901V2.98026C14.2083 3.20943 13.3802 3.39172 12.5156 3.52714C11.651 3.66255 10.8125 3.73026 10 3.73026C9.20833 3.73026 8.38021 3.66255 7.51562 3.52714C6.65104 3.39172 5.8125 3.20943 5 2.98026V7.44901C5.75 7.71985 6.57292 7.92818 7.46875 8.07401C8.36458 8.21985 9.20833 8.29276 10 8.29276ZM10 15.4178C10.7708 15.4178 11.599 15.3448 12.4844 15.199C13.3698 15.0532 14.2083 14.8344 15 14.5428V10.0428C14.0833 10.2928 13.2135 10.4803 12.3906 10.6053C11.5677 10.7303 10.7708 10.7928 10 10.7928C9.1875 10.7928 8.35417 10.7303 7.5 10.6053C6.64583 10.4803 5.8125 10.2928 5 10.0428V14.5428C5.79167 14.8344 6.63021 15.0532 7.51562 15.199C8.40104 15.3448 9.22917 15.4178 10 15.4178ZM10 22.4803C10.7917 22.4803 11.6302 22.4073 12.5156 22.2615C13.401 22.1157 14.2292 21.9073 15 21.6365V17.1678C14.2083 17.3969 13.3802 17.5792 12.5156 17.7146C11.651 17.8501 10.8125 17.9178 10 17.9178C9.20833 17.9178 8.38021 17.8501 7.51562 17.7146C6.65104 17.5792 5.8125 17.3969 5 17.1678V21.6365C5.75 21.9073 6.57292 22.1157 7.46875 22.2615C8.36458 22.4073 9.20833 22.4803 10 22.4803Z" fill="#EAB308"/>
</svg>
